<?xml version="1.0" encoding="UTF-8" standalone="no"?>
<svg
   xmlns:dc="http://purl.org/dc/elements/1.1/"
   xmlns:cc="http://creativecommons.org/ns#"
   xmlns:rdf="http://www.w3.org/1999/02/22-rdf-syntax-ns#"
   xmlns:svg="http://www.w3.org/2000/svg"
   xmlns="http://www.w3.org/2000/svg"
   xmlns:xlink="http://www.w3.org/1999/xlink"
   xmlns:sodipodi="http://sodipodi.sourceforge.net/DTD/sodipodi-0.dtd"
   xmlns:inkscape="http://www.inkscape.org/namespaces/inkscape"
   width="1024"
   height="1024"
   viewBox="0 0 270.93333 270.93333"
   version="1.1"
   id="svg8"
   inkscape:version="1.0.1 (c497b03c, 2020-09-10)"
   sodipodi:docname="cacodemon.svg"
   inkscape:export-filename="/Users/main/Pictures/cacodemon32.png"
   inkscape:export-xdpi="3"
   inkscape:export-ydpi="3">
  <defs
     id="defs2">
    <linearGradient
       inkscape:collect="always"
       id="linearGradient3458">
      <stop
         style="stop-color:#00bb00;stop-opacity:1"
         offset="0"
         id="stop3454" />
      <stop
         style="stop-color:#00f500;stop-opacity:1"
         offset="1"
         id="stop3456" />
    </linearGradient>
    <linearGradient
       inkscape:collect="always"
       id="Horns">
      <stop
         style="stop-color:#323232;stop-opacity:1"
         offset="0"
         id="stop3031" />
      <stop
         style="stop-color:#f1f1f1;stop-opacity:1"
         offset="1"
         id="stop3033" />
    </linearGradient>
    <linearGradient
       inkscape:collect="always"
       id="bod">
      <stop
         style="stop-color:#b53100;stop-opacity:1"
         offset="0"
         id="stop2873" />
      <stop
         style="stop-color:#ff6c21;stop-opacity:1"
         offset="1"
         id="stop2875" />
    </linearGradient>
    <color-profile
       name="sRGB-IEC61966-2.1"
       xlink:href="file:///System/Library/ColorSync/Profiles/sRGB%20Profile.icc"
       id="color-profile842" />
    <radialGradient
       inkscape:collect="always"
       xlink:href="#bod"
       id="radialGradient2883"
       cx="58.325401"
       cy="236.23982"
       fx="58.325401"
       fy="236.23982"
       r="103.70539"
       gradientUnits="userSpaceOnUse"
       gradientTransform="matrix(1.5477799,-1.2552298,1.9994431,2.4654433,-494.7098,-276.72519)" />
    <linearGradient
       inkscape:collect="always"
       xlink:href="#Horns"
       id="linearGradient2953"
       x1="85.90303"
       y1="61.747475"
       x2="110.07879"
       y2="61.747475"
       gradientUnits="userSpaceOnUse"
       gradientTransform="matrix(0.9906661,0,0,0.9906661,2.7934551,0.43241547)" />
    <linearGradient
       inkscape:collect="always"
       xlink:href="#Horns"
       id="linearGradient2955"
       x1="29.385408"
       y1="118.64339"
       x2="50.158298"
       y2="94.955139"
       gradientUnits="userSpaceOnUse"
       gradientTransform="matrix(0.9906661,0,0,0.9906661,2.7934551,0.43241547)" />
    <linearGradient
       inkscape:collect="always"
       xlink:href="#Horns"
       id="linearGradient2959"
       x1="164.59763"
       y1="69.885178"
       x2="230.29182"
       y2="54.487812"
       gradientUnits="userSpaceOnUse"
       gradientTransform="matrix(0.9906661,0,0,0.9906661,2.7934551,0.43241547)" />
    <linearGradient
       inkscape:collect="always"
       xlink:href="#Horns"
       id="linearGradient2961"
       x1="206.61237"
       y1="136.1013"
       x2="260.92575"
       y2="107.6754"
       gradientUnits="userSpaceOnUse" />
    <linearGradient
       inkscape:collect="always"
       xlink:href="#Horns"
       id="linearGradient2963"
       x1="45.89201"
       y1="209.47337"
       x2="18.997856"
       y2="223.09413"
       gradientUnits="userSpaceOnUse"
       gradientTransform="matrix(0.9906661,0,0,0.9906661,2.7934551,0.43241547)" />
    <linearGradient
       inkscape:collect="always"
       xlink:href="#Horns"
       id="linearGradient2965"
       x1="134.09453"
       y1="253.89243"
       x2="154.08005"
       y2="245.00932"
       gradientUnits="userSpaceOnUse"
       gradientTransform="matrix(0.9906661,0,0,0.9906661,2.7934551,0.43241547)" />
    <linearGradient
       inkscape:collect="always"
       xlink:href="#Horns"
       id="linearGradient2999"
       x1="27.542664"
       y1="69.277542"
       x2="87.263405"
       y2="47.958107"
       gradientUnits="userSpaceOnUse" />
    <linearGradient
       inkscape:collect="always"
       xlink:href="#Horns"
       id="linearGradient3043"
       x1="204.39171"
       y1="96.810257"
       x2="235.62039"
       y2="87.038849"
       gradientUnits="userSpaceOnUse"
       gradientTransform="matrix(0.9906661,0,0,0.9906661,2.7934551,0.43241547)" />
    <linearGradient
       inkscape:collect="always"
       xlink:href="#Horns"
       id="linearGradient3047"
       gradientUnits="userSpaceOnUse"
       x1="206.61237"
       y1="136.1013"
       x2="260.92575"
       y2="107.6754" />
    <linearGradient
       inkscape:collect="always"
       xlink:href="#Horns"
       id="linearGradient3057"
       gradientUnits="userSpaceOnUse"
       x1="203.99628"
       y1="248.08757"
       x2="218.7168"
       y2="237.42786"
       gradientTransform="matrix(0.9906661,0,0,0.9906661,2.7934551,0.43241547)" />
    <linearGradient
       gradientUnits="userSpaceOnUse"
       y2="517.8"
       x2="0"
       y1="545.8"
       id="linearGradient904">
      <stop
         stop-color="#3889e9"
         id="stop900" />
      <stop
         offset="1"
         stop-color="#5ea5fb"
         id="stop902" />
    </linearGradient>
    <linearGradient
       y2="518.14"
       x2="0"
       y1="545.14"
       gradientUnits="userSpaceOnUse"
       id="0"
       gradientTransform="matrix(1.7142729,0,0,1.7142729,-662.68376,-887.63886)">
      <stop
         stop-color="#7e19bf"
         id="stop906"
         style="stop-color:#891bcf;stop-opacity:1" />
      <stop
         offset="1"
         stop-color="#bd30fa"
         id="stop908"
         style="stop-color:#c344fa;stop-opacity:1" />
    </linearGradient>
    <linearGradient
       gradientUnits="userSpaceOnUse"
       y2="517.8"
       x2="0"
       y1="545.8"
       id="linearGradient904-9">
      <stop
         stop-color="#3889e9"
         id="stop900-8" />
      <stop
         offset="1"
         stop-color="#5ea5fb"
         id="stop902-3" />
    </linearGradient>
    <linearGradient
       y2="518.14"
       x2="0"
       y1="545.14"
       gradientUnits="userSpaceOnUse"
       id="0-4"
       gradientTransform="matrix(1.7142729,0,0,1.7142729,-662.68376,-887.63886)">
      <stop
         stop-color="#7e19bf"
         id="stop906-5" />
      <stop
         offset="1"
         stop-color="#bd30fa"
         id="stop908-3" />
    </linearGradient>
    <radialGradient
       inkscape:collect="always"
       xlink:href="#0"
       id="radialGradient3320"
       cx="-159.29163"
       cy="44.846596"
       fx="-159.29163"
       fy="44.846596"
       r="13.641096"
       gradientTransform="matrix(2.1096949,-2.0270671,2.747033,2.8590112,228.93223,-415.97185)"
       gradientUnits="userSpaceOnUse" />
    <radialGradient
       inkscape:collect="always"
       xlink:href="#linearGradient3458"
       id="radialGradient3460"
       cx="94.923103"
       cy="159.22501"
       fx="94.923103"
       fy="159.22501"
       r="65.592133"
       gradientTransform="matrix(1,0,0,1.1515886,0,-24.136698)"
       gradientUnits="userSpaceOnUse" />
    <radialGradient
       inkscape:collect="always"
       xlink:href="#linearGradient3458"
       id="radialGradient3462"
       gradientUnits="userSpaceOnUse"
       gradientTransform="matrix(1.9201496,-1.5881672,1.1934011,1.4428637,-272.14481,13.952912)"
       cx="50.516079"
       cy="185.59906"
       fx="50.516079"
       fy="185.59906"
       r="65.592133" />
    <linearGradient
       inkscape:collect="always"
       xlink:href="#Horns"
       id="linearGradient3515"
       gradientUnits="userSpaceOnUse"
       x1="27.542664"
       y1="69.277542"
       x2="87.263405"
       y2="47.958107"
       gradientTransform="matrix(0.9906661,0,0,0.9906661,2.7934551,0.43241547)" />
    <radialGradient
       inkscape:collect="always"
       xlink:href="#bod"
       id="radialGradient3517"
       gradientUnits="userSpaceOnUse"
       gradientTransform="matrix(1.533333,-1.2435136,1.9807805,2.442431,-487.29877,-273.70984)"
       cx="58.325401"
       cy="236.23982"
       fx="58.325401"
       fy="236.23982"
       r="103.70539" />
    <linearGradient
       inkscape:collect="always"
       xlink:href="#Horns"
       id="linearGradient3519"
       gradientUnits="userSpaceOnUse"
       x1="206.61237"
       y1="136.1013"
       x2="260.92575"
       y2="107.6754"
       gradientTransform="matrix(0.9906661,0,0,0.9906661,2.7934551,0.43241547)" />
    <radialGradient
       inkscape:collect="always"
       xlink:href="#linearGradient3458"
       id="radialGradient943"
       gradientUnits="userSpaceOnUse"
       gradientTransform="matrix(1,0,0,1.1515886,0,-24.136698)"
       cx="94.923103"
       cy="159.22501"
       fx="94.923103"
       fy="159.22501"
       r="65.592133" />
  </defs>
  <sodipodi:namedview
     id="base"
     pagecolor="#707070"
     bordercolor="#202020"
     borderopacity="1"
     inkscape:pageopacity="0"
     inkscape:pageshadow="2"
     inkscape:zoom="0.44677548"
     inkscape:cx="496.33721"
     inkscape:cy="567.61809"
     inkscape:document-units="px"
     inkscape:current-layer="layer2"
     inkscape:document-rotation="0"
     showgrid="false"
     units="px"
     inkscape:window-width="1440"
     inkscape:window-height="855"
     inkscape:window-x="0"
     inkscape:window-y="23"
     inkscape:window-maximized="0"
     inkscape:pagecheckerboard="true"
     objecttolerance="5"
     inkscape:lockguides="true" />
  <metadata
     id="metadata5">
    <rdf:RDF>
      <cc:Work
         rdf:about="">
        <dc:format>image/svg+xml</dc:format>
        <dc:type
           rdf:resource="http://purl.org/dc/dcmitype/StillImage" />
        <dc:title></dc:title>
      </cc:Work>
    </rdf:RDF>
  </metadata>
  <g
     inkscape:groupmode="layer"
     id="layer2"
     inkscape:label="Demon"
     style="display:inline">
    <g
       id="g1041"
       transform="matrix(1.0150052,0,0,1.0150052,-6.4333412,-1.8256008)">
      <g
         id="g905"
         style="display:inline;opacity:1">
        <path
           style="color:#000000;font-style:normal;font-variant:normal;font-weight:normal;font-stretch:normal;font-size:medium;line-height:normal;font-family:sans-serif;font-variant-ligatures:normal;font-variant-position:normal;font-variant-caps:normal;font-variant-numeric:normal;font-variant-alternates:normal;font-variant-east-asian:normal;font-feature-settings:normal;font-variation-settings:normal;text-indent:0;text-align:start;text-decoration:none;text-decoration-line:none;text-decoration-style:solid;text-decoration-color:#000000;letter-spacing:normal;word-spacing:normal;text-transform:none;writing-mode:lr-tb;direction:ltr;text-orientation:mixed;dominant-baseline:auto;baseline-shift:baseline;text-anchor:start;white-space:normal;shape-padding:0;shape-margin:0;inline-size:0;clip-rule:nonzero;display:inline;overflow:visible;visibility:visible;isolation:auto;mix-blend-mode:normal;color-interpolation:sRGB;color-interpolation-filters:linearRGB;solid-color:#000000;solid-opacity:1;vector-effect:none;fill:#000000;fill-opacity:1;fill-rule:nonzero;stroke:none;stroke-width:2.62114;stroke-linecap:butt;stroke-linejoin:miter;stroke-miterlimit:4;stroke-dasharray:none;stroke-dashoffset:0;stroke-opacity:1;paint-order:stroke fill markers;color-rendering:auto;image-rendering:auto;shape-rendering:auto;text-rendering:auto;enable-background:accumulate;stop-color:#000000;stop-opacity:1"
           d="m 231.67383,75.234375 c -1.83915,0.460115 -3.85503,2.029694 -7.0293,5.160156 -8.05421,7.943061 -18.59766,8.126953 -18.59765,8.126953 l -2.01172,0.0293 8.82422,19.160156 1.3164,-1.11524 c 0,0 8.68506,-7.349936 14.94336,-15.589838 2.9142,-3.836941 5.47016,-9.006219 5.75781,-12.472656 0.0719,-0.866609 0.0508,-1.717987 -0.52929,-2.5 -0.58006,-0.782012 -1.75426,-1.028886 -2.67383,-0.798828 z M 232.25,77.8125 c 0.0136,0.07905 0.0479,0.115621 0.0156,0.503906 -0.18434,2.221462 -2.6016,7.637112 -5.23437,11.103516 -5.23511,6.892728 -11.51538,12.463468 -13.26563,13.992188 l -5.72656,-12.431641 c 3.66527,-0.452741 11.80896,-2.175939 18.44532,-8.720703 3.00784,-2.96634 5.06719,-4.249399 5.76562,-4.447266 z"
           id="path907" />
        <path
           style="color:#000000;font-style:normal;font-variant:normal;font-weight:normal;font-stretch:normal;font-size:medium;line-height:normal;font-family:sans-serif;font-variant-ligatures:normal;font-variant-position:normal;font-variant-caps:normal;font-variant-numeric:normal;font-variant-alternates:normal;font-variant-east-asian:normal;font-feature-settings:normal;font-variation-settings:normal;text-indent:0;text-align:start;text-decoration:none;text-decoration-line:none;text-decoration-style:solid;text-decoration-color:#000000;letter-spacing:normal;word-spacing:normal;text-transform:none;writing-mode:lr-tb;direction:ltr;text-orientation:mixed;dominant-baseline:auto;baseline-shift:baseline;text-anchor:start;white-space:normal;shape-padding:0;shape-margin:0;inline-size:0;clip-rule:nonzero;display:inline;overflow:visible;visibility:visible;isolation:auto;mix-blend-mode:normal;color-interpolation:sRGB;color-interpolation-filters:linearRGB;solid-color:#000000;solid-opacity:1;vector-effect:none;fill:url(#linearGradient3043);fill-opacity:1;fill-rule:nonzero;stroke:none;stroke-width:2.62114;stroke-linecap:butt;stroke-linejoin:miter;stroke-miterlimit:4;stroke-dasharray:none;stroke-dashoffset:0;stroke-opacity:1;paint-order:stroke fill markers;color-rendering:auto;image-rendering:auto;shape-rendering:auto;text-rendering:auto;enable-background:accumulate;stop-color:#000000;stop-opacity:1"
           d="m 213.32707,105.59551 c 0,0 8.61729,-7.310527 14.74835,-15.3829 5.54697,-7.303345 9.9454,-21.169436 -2.51042,-8.885504 -8.45426,8.337584 -19.49772,8.504315 -19.49772,8.504315 z"
           id="path909" />
      </g>
      <g
         id="g911"
         style="display:inline;opacity:1">
        <path
           style="color:#000000;font-style:normal;font-variant:normal;font-weight:normal;font-stretch:normal;font-size:medium;line-height:normal;font-family:sans-serif;font-variant-ligatures:normal;font-variant-position:normal;font-variant-caps:normal;font-variant-numeric:normal;font-variant-alternates:normal;font-variant-east-asian:normal;font-feature-settings:normal;font-variation-settings:normal;text-indent:0;text-align:start;text-decoration:none;text-decoration-line:none;text-decoration-style:solid;text-decoration-color:#000000;letter-spacing:normal;word-spacing:normal;text-transform:none;writing-mode:lr-tb;direction:ltr;text-orientation:mixed;dominant-baseline:auto;baseline-shift:baseline;text-anchor:start;white-space:normal;shape-padding:0;shape-margin:0;inline-size:0;clip-rule:nonzero;display:inline;overflow:visible;visibility:visible;isolation:auto;mix-blend-mode:normal;color-interpolation:sRGB;color-interpolation-filters:linearRGB;solid-color:#000000;solid-opacity:1;vector-effect:none;fill:#000000;fill-opacity:1;fill-rule:nonzero;stroke:none;stroke-width:2.62114;stroke-linecap:butt;stroke-linejoin:miter;stroke-miterlimit:4;stroke-dasharray:none;stroke-dashoffset:0;stroke-opacity:1;paint-order:stroke fill markers;color-rendering:auto;image-rendering:auto;shape-rendering:auto;text-rendering:auto;enable-background:accumulate;stop-color:#000000;stop-opacity:1"
           d="m 77.380859,1.8007812 c -0.621567,-0.020244 -1.274065,0.1034014 -1.941406,0.2851563 -1.334681,0.3635097 -2.836981,1.0607372 -4.496094,2.0527344 -6.636451,3.9679889 -15.766002,12.7061671 -21.375,24.3632811 -5.605407,11.649651 -7.507667,25.641641 -6.980468,38.070313 0.527198,12.428671 3.375178,23.259104 7.933593,28.857422 3.993878,4.904992 8.20123,6.571122 12.011719,5.833982 3.810489,-0.73714 6.958034,-3.601656 9.550781,-6.91992 5.185495,-6.636527 8.277344,-15.484375 8.277344,-15.484375 l 0.203125,-0.576172 -0.310547,-0.527344 c 0,0 -21.996337,-37.498139 -2.732422,-66.644531 1.352239,-2.0459429 2.170325,-3.6736978 2.523438,-5.0703124 0.176557,-0.6983072 0.241886,-1.3530331 0.11914,-1.9960937 C 80.041317,3.4018612 79.672897,2.7657699 79.132812,2.375 78.592728,1.9842301 78.002427,1.821025 77.380859,1.8007812 Z m 0.214844,2.6972657 c -0.0092,-0.00664 -0.02779,-0.075831 -0.0059,0.039063 0.02193,0.1148932 0.02773,0.4117529 -0.08594,0.8613281 -0.227337,0.8991505 -0.90812,2.3614216 -2.167968,4.2675781 -19.848534,30.0309229 1.320813,67.0390129 2.349609,68.8046879 -0.276572,0.75823 -3.100136,8.416237 -7.666016,14.259766 -2.397328,3.068161 -5.192234,5.420796 -7.984375,5.960937 C 59.242972,99.231549 56.187627,98.23716 52.554645,93.775392 48.740886,89.091609 45.717259,78.53658 45.205035,66.460939 44.692811,54.385297 46.582923,40.75476 51.931598,29.638673 57.276681,18.530049 66.210668,10.021802 72.287066,6.3886724 c 1.5191,-0.9082822 2.859826,-1.508476 3.839844,-1.7753907 0.980018,-0.2669146 1.487108,-0.1019516 1.46875,-0.1152343 z"
           id="path913" />
        <path
           style="color:#000000;font-style:normal;font-variant:normal;font-weight:normal;font-stretch:normal;font-size:medium;line-height:normal;font-family:sans-serif;font-variant-ligatures:normal;font-variant-position:normal;font-variant-caps:normal;font-variant-numeric:normal;font-variant-alternates:normal;font-variant-east-asian:normal;font-feature-settings:normal;font-variation-settings:normal;text-indent:0;text-align:start;text-decoration:none;text-decoration-line:none;text-decoration-style:solid;text-decoration-color:#000000;letter-spacing:normal;word-spacing:normal;text-transform:none;writing-mode:lr-tb;direction:ltr;text-orientation:mixed;dominant-baseline:auto;baseline-shift:baseline;text-anchor:start;white-space:normal;shape-padding:0;shape-margin:0;inline-size:0;clip-rule:nonzero;display:inline;overflow:visible;visibility:visible;isolation:auto;mix-blend-mode:normal;color-interpolation:sRGB;color-interpolation-filters:linearRGB;solid-color:#000000;solid-opacity:1;vector-effect:none;fill:url(#linearGradient3515);fill-opacity:1;fill-rule:nonzero;stroke:none;stroke-width:2.62114;stroke-linecap:butt;stroke-linejoin:miter;stroke-miterlimit:4;stroke-dasharray:none;stroke-dashoffset:0;stroke-opacity:1;paint-order:stroke fill markers;color-rendering:auto;image-rendering:auto;shape-rendering:auto;text-rendering:auto;enable-background:accumulate;stop-color:#000000;stop-opacity:1"
           d="m 79.124856,78.423197 c 0,0 -22.493923,-38.080905 -2.696489,-68.034513 C 86.876713,-5.4197139 61.703882,6.3038514 50.749801,29.069589 39.795719,51.835327 43.165519,84.320034 51.537692,94.602134 66.791413,113.33566 79.124856,78.423197 79.124856,78.423197 Z"
           id="path915" />
      </g>
      <g
         id="g917"
         style="display:inline;opacity:1">
        <path
           style="color:#000000;font-style:normal;font-variant:normal;font-weight:normal;font-stretch:normal;font-size:medium;line-height:normal;font-family:sans-serif;font-variant-ligatures:normal;font-variant-position:normal;font-variant-caps:normal;font-variant-numeric:normal;font-variant-alternates:normal;font-variant-east-asian:normal;font-feature-settings:normal;font-variation-settings:normal;text-indent:0;text-align:start;text-decoration:none;text-decoration-line:none;text-decoration-style:solid;text-decoration-color:#000000;letter-spacing:normal;word-spacing:normal;text-transform:none;writing-mode:lr-tb;direction:ltr;text-orientation:mixed;dominant-baseline:auto;baseline-shift:baseline;text-anchor:start;white-space:normal;shape-padding:0;shape-margin:0;inline-size:0;clip-rule:nonzero;display:inline;overflow:visible;visibility:visible;isolation:auto;mix-blend-mode:normal;color-interpolation:sRGB;color-interpolation-filters:linearRGB;solid-color:#000000;solid-opacity:1;vector-effect:none;fill:#000000;fill-opacity:1;fill-rule:nonzero;stroke:none;stroke-width:2.62114;stroke-linecap:butt;stroke-linejoin:miter;stroke-miterlimit:4;stroke-dasharray:none;stroke-dashoffset:0;stroke-opacity:1;paint-order:stroke fill markers;color-rendering:auto;image-rendering:auto;shape-rendering:auto;text-rendering:auto;enable-background:accumulate;stop-color:#000000;stop-opacity:1"
           d="m 103.17578,38.615234 c -0.5974,-0.269054 -1.38783,-0.204975 -1.9414,0.08789 -1.10716,0.585732 -1.730985,1.632528 -2.539068,3.25 -1.611338,3.225289 -4.530891,10.78815 -7.109374,17.658203 -2.578484,6.870054 -4.775391,12.97461 -4.775391,12.97461 l -0.259766,0.724609 0.503907,0.580078 4.046874,4.652344 3.542969,6.835937 18.591799,-13.943359 -0.30469,-0.900391 c 0,0 -4.92728,-14.616693 -6.17187,-21.992187 -0.64956,-3.849343 -1.14792,-6.877796 -2.32422,-8.746094 -0.29408,-0.467075 -0.66237,-0.912586 -1.25977,-1.18164 z m -0.92383,2.714844 c 0.53794,0.919622 1.29428,3.919605 1.92383,7.650391 1.26245,7.481303 5.49209,20.038966 5.98242,21.488281 L 95.546875,81.425781 93.283203,77.058594 89.542969,72.755859 c 0.224716,-0.623724 2.067913,-5.753067 4.496093,-12.222656 2.571049,-6.850243 5.563326,-14.532527 6.999998,-17.408203 0.6111,-1.223186 1.03853,-1.619647 1.21289,-1.794922 z"
           id="path919" />
        <path
           style="color:#000000;font-style:normal;font-variant:normal;font-weight:normal;font-stretch:normal;font-size:medium;line-height:normal;font-family:sans-serif;font-variant-ligatures:normal;font-variant-position:normal;font-variant-caps:normal;font-variant-numeric:normal;font-variant-alternates:normal;font-variant-east-asian:normal;font-feature-settings:normal;font-variation-settings:normal;text-indent:0;text-align:start;text-decoration:none;text-decoration-line:none;text-decoration-style:solid;text-decoration-color:#000000;letter-spacing:normal;word-spacing:normal;text-transform:none;writing-mode:lr-tb;direction:ltr;text-orientation:mixed;dominant-baseline:auto;baseline-shift:baseline;text-anchor:start;white-space:normal;shape-padding:0;shape-margin:0;inline-size:0;clip-rule:nonzero;display:inline;overflow:visible;visibility:visible;isolation:auto;mix-blend-mode:normal;color-interpolation:sRGB;color-interpolation-filters:linearRGB;solid-color:#000000;solid-opacity:1;vector-effect:none;fill:url(#linearGradient2953);fill-opacity:1;fill-rule:nonzero;stroke:none;stroke-width:2.62114;stroke-linecap:butt;stroke-linejoin:miter;stroke-miterlimit:4;stroke-dasharray:none;stroke-dashoffset:0;stroke-opacity:1;paint-order:stroke fill markers;color-rendering:auto;image-rendering:auto;shape-rendering:auto;text-rendering:auto;enable-background:accumulate;stop-color:#000000;stop-opacity:1"
           d="m 88.044014,73.030217 c 0,0 8.775057,-24.39011 11.82307,-30.491075 3.048016,-6.100967 4.310016,-1.424224 5.600396,6.222666 1.29039,7.646889 6.22267,22.194185 6.22267,22.194185 L 95.096371,83.401331 92.192459,77.800929 Z"
           id="path921" />
      </g>
      <g
         id="g923"
         style="display:inline;opacity:1">
        <path
           style="color:#000000;font-style:normal;font-variant:normal;font-weight:normal;font-stretch:normal;font-size:medium;line-height:normal;font-family:sans-serif;font-variant-ligatures:normal;font-variant-position:normal;font-variant-caps:normal;font-variant-numeric:normal;font-variant-alternates:normal;font-variant-east-asian:normal;font-feature-settings:normal;font-variation-settings:normal;text-indent:0;text-align:start;text-decoration:none;text-decoration-line:none;text-decoration-style:solid;text-decoration-color:#000000;letter-spacing:normal;word-spacing:normal;text-transform:none;writing-mode:lr-tb;direction:ltr;text-orientation:mixed;dominant-baseline:auto;baseline-shift:baseline;text-anchor:start;white-space:normal;shape-padding:0;shape-margin:0;inline-size:0;clip-rule:nonzero;display:inline;overflow:visible;visibility:visible;isolation:auto;mix-blend-mode:normal;color-interpolation:sRGB;color-interpolation-filters:linearRGB;solid-color:#000000;solid-opacity:1;vector-effect:none;fill:#000000;fill-opacity:1;fill-rule:nonzero;stroke:none;stroke-width:2.62114;stroke-linecap:butt;stroke-linejoin:miter;stroke-miterlimit:4;stroke-dasharray:none;stroke-dashoffset:0;stroke-opacity:1;paint-order:stroke fill markers;color-rendering:auto;image-rendering:auto;shape-rendering:auto;text-rendering:auto;enable-background:accumulate;stop-color:#000000;stop-opacity:1"
           d="m 28.142578,95.642578 c -0.573425,-0.02511 -1.065298,-0.01847 -1.542969,0.06641 -0.477671,0.08488 -1.110866,0.199286 -1.523437,0.970704 -0.372266,0.696056 -0.229563,1.215888 -0.109375,1.693359 0.120188,0.477471 0.316447,0.95891 0.572265,1.5 0.511637,1.082179 1.275997,2.386219 2.222657,3.871089 1.893319,2.96975 4.512333,6.63727 7.173828,10.22461 5.32299,7.17468 10.808594,14.01758 10.808594,14.01758 l 1.142578,1.42773 16.238281,-25.41797 -1.679688,-0.48828 c 0,0 -8.416743,-2.45239 -17.003906,-4.617181 -4.293581,-1.082397 -8.626818,-2.093482 -12.011718,-2.695313 -1.692451,-0.300915 -3.140259,-0.502513 -4.28711,-0.552734 z m -0.113281,2.619141 c 0.928635,0.04067 2.308741,0.223386 3.941406,0.513672 3.265331,0.580571 7.567163,1.581579 11.830078,2.656249 7.670181,1.93363 13.775301,3.71459 15.214844,4.13086 l -12.349609,19.32812 c -0.967367,-1.21234 -4.892456,-6.10553 -9.625,-12.48437 -2.642412,-3.56162 -5.241009,-7.20098 -7.070313,-10.07031 -0.914652,-1.43467 -1.637301,-2.684634 -2.0625,-3.583987 -0.100338,-0.212229 -0.122284,-0.313678 -0.1875,-0.480469 0.122413,-8.15e-4 0.161274,-0.01622 0.308594,-0.0098 z"
           id="path925" />
        <path
           style="color:#000000;font-style:normal;font-variant:normal;font-weight:normal;font-stretch:normal;font-size:medium;line-height:normal;font-family:sans-serif;font-variant-ligatures:normal;font-variant-position:normal;font-variant-caps:normal;font-variant-numeric:normal;font-variant-alternates:normal;font-variant-east-asian:normal;font-feature-settings:normal;font-variation-settings:normal;text-indent:0;text-align:start;text-decoration:none;text-decoration-line:none;text-decoration-style:solid;text-decoration-color:#000000;letter-spacing:normal;word-spacing:normal;text-transform:none;writing-mode:lr-tb;direction:ltr;text-orientation:mixed;dominant-baseline:auto;baseline-shift:baseline;text-anchor:start;white-space:normal;shape-padding:0;shape-margin:0;inline-size:0;clip-rule:nonzero;display:inline;overflow:visible;visibility:visible;isolation:auto;mix-blend-mode:normal;color-interpolation:sRGB;color-interpolation-filters:linearRGB;solid-color:#000000;solid-opacity:1;vector-effect:none;fill:url(#linearGradient2955);fill-opacity:1;fill-rule:nonzero;stroke:none;stroke-width:2.62114;stroke-linecap:butt;stroke-linejoin:miter;stroke-miterlimit:4;stroke-dasharray:none;stroke-dashoffset:0;stroke-opacity:1;paint-order:stroke fill markers;color-rendering:auto;image-rendering:auto;shape-rendering:auto;text-rendering:auto;enable-background:accumulate;stop-color:#000000;stop-opacity:1"
           d="m 61.079116,104.76582 c 0,0 -33.605028,-9.789309 -34.846943,-7.467197 -1.361638,2.545967 20.534806,29.868807 20.534806,29.868807 z"
           id="path927" />
      </g>
      <g
         id="g929"
         style="display:inline;opacity:1">
        <path
           style="color:#000000;font-style:normal;font-variant:normal;font-weight:normal;font-stretch:normal;font-size:medium;line-height:normal;font-family:sans-serif;font-variant-ligatures:normal;font-variant-position:normal;font-variant-caps:normal;font-variant-numeric:normal;font-variant-alternates:normal;font-variant-east-asian:normal;font-feature-settings:normal;font-variation-settings:normal;text-indent:0;text-align:start;text-decoration:none;text-decoration-line:none;text-decoration-style:solid;text-decoration-color:#000000;letter-spacing:normal;word-spacing:normal;text-transform:none;writing-mode:lr-tb;direction:ltr;text-orientation:mixed;dominant-baseline:auto;baseline-shift:baseline;text-anchor:start;white-space:normal;shape-padding:0;shape-margin:0;inline-size:0;clip-rule:nonzero;display:inline;overflow:visible;visibility:visible;isolation:auto;mix-blend-mode:normal;color-interpolation:sRGB;color-interpolation-filters:linearRGB;solid-color:#000000;solid-opacity:1;vector-effect:none;fill:#000000;fill-opacity:1;fill-rule:nonzero;stroke:none;stroke-width:2.62114;stroke-linecap:butt;stroke-linejoin:miter;stroke-miterlimit:4;stroke-dasharray:none;stroke-dashoffset:0;stroke-opacity:1;paint-order:stroke fill markers;color-rendering:auto;image-rendering:auto;shape-rendering:auto;text-rendering:auto;enable-background:accumulate;stop-color:#000000;stop-opacity:1"
           d="m 213.50781,223.70703 -1.11523,0.12109 c 0,0 -5.69867,0.52841 -9.88086,3.97852 -4.04214,3.33462 -6.26172,7.88867 -6.26172,7.88867 l -0.47852,0.96875 0.85743,0.6543 c 0,0 4.36001,3.32971 8.96484,6.53125 2.30241,1.60077 4.66314,3.16974 6.61133,4.29492 0.97409,0.56259 1.83728,1.01359 2.5957,1.31445 0.37921,0.15044 0.7292,0.26646 1.10742,0.32813 0.37823,0.0617 0.83827,0.12325 1.39844,-0.20899 0.60149,-0.35673 0.75799,-0.85693 0.85742,-1.24218 0.0994,-0.38526 0.12885,-0.75869 0.13672,-1.17578 0.0157,-0.8342 -0.0763,-1.83223 -0.23047,-2.98633 -0.30823,-2.30821 -0.88322,-5.20877 -1.51562,-8.07422 -1.26481,-5.73091 -2.75781,-11.30859 -2.75781,-11.30859 z m -1.94726,2.9707 c 0.26751,1.01066 1.32,4.94062 2.43359,9.98633 0.62421,2.8283 1.18918,5.68881 1.47852,7.85547 0.13692,1.02535 0.19741,1.86176 0.19531,2.45313 -0.54075,-0.2221 -1.27933,-0.59345 -2.15235,-1.09766 -1.82682,-1.05509 -4.15469,-2.59874 -6.42578,-4.17773 -4.05727,-2.82086 -7.14031,-5.17655 -7.92382,-5.77149 0.62645,-1.12448 2.18947,-3.76584 5.01367,-6.0957 2.73167,-2.2535 6.02203,-2.91992 7.38086,-3.15235 z"
           id="path931" />
        <path
           style="color:#000000;font-style:normal;font-variant:normal;font-weight:normal;font-stretch:normal;font-size:medium;line-height:normal;font-family:sans-serif;font-variant-ligatures:normal;font-variant-position:normal;font-variant-caps:normal;font-variant-numeric:normal;font-variant-alternates:normal;font-variant-east-asian:normal;font-feature-settings:normal;font-variation-settings:normal;text-indent:0;text-align:start;text-decoration:none;text-decoration-line:none;text-decoration-style:solid;text-decoration-color:#000000;letter-spacing:normal;word-spacing:normal;text-transform:none;writing-mode:lr-tb;direction:ltr;text-orientation:mixed;dominant-baseline:auto;baseline-shift:baseline;text-anchor:start;white-space:normal;shape-padding:0;shape-margin:0;inline-size:0;clip-rule:nonzero;display:inline;overflow:visible;visibility:visible;isolation:auto;mix-blend-mode:normal;color-interpolation:sRGB;color-interpolation-filters:linearRGB;solid-color:#000000;solid-opacity:1;vector-effect:none;fill:url(#linearGradient3057);fill-opacity:1;fill-rule:nonzero;stroke:none;stroke-width:2.62114;stroke-linecap:butt;stroke-linejoin:miter;stroke-miterlimit:4;stroke-dasharray:none;stroke-dashoffset:0;stroke-opacity:1;paint-order:stroke fill markers;color-rendering:auto;image-rendering:auto;shape-rendering:auto;text-rendering:auto;enable-background:accumulate;stop-color:#000000;stop-opacity:1"
           d="m 212.53115,225.1304 c 0,0 5.94614,22.22955 4.10673,23.32049 -1.8394,1.09095 -19.21372,-12.17359 -19.21372,-12.17359 0,0 2.15276,-4.35029 5.92092,-7.45888 3.76818,-3.10857 9.18607,-3.68802 9.18607,-3.68802 z"
           id="path933" />
      </g>
      <g
         id="g899"
         style="display:inline;opacity:1">
        <path
           style="color:#000000;font-style:normal;font-variant:normal;font-weight:normal;font-stretch:normal;font-size:medium;line-height:normal;font-family:sans-serif;font-variant-ligatures:normal;font-variant-position:normal;font-variant-caps:normal;font-variant-numeric:normal;font-variant-alternates:normal;font-variant-east-asian:normal;font-feature-settings:normal;font-variation-settings:normal;text-indent:0;text-align:start;text-decoration:none;text-decoration-line:none;text-decoration-style:solid;text-decoration-color:#000000;letter-spacing:normal;word-spacing:normal;text-transform:none;writing-mode:lr-tb;direction:ltr;text-orientation:mixed;dominant-baseline:auto;baseline-shift:baseline;text-anchor:start;white-space:normal;shape-padding:0;shape-margin:0;inline-size:0;clip-rule:nonzero;display:inline;overflow:visible;visibility:visible;isolation:auto;mix-blend-mode:normal;color-interpolation:sRGB;color-interpolation-filters:linearRGB;solid-color:#000000;solid-opacity:1;vector-effect:none;fill:#000000;fill-opacity:1;fill-rule:nonzero;stroke:none;stroke-width:2.62114;stroke-linecap:round;stroke-linejoin:round;stroke-miterlimit:4;stroke-dasharray:none;stroke-dashoffset:0;stroke-opacity:1;paint-order:stroke fill markers;color-rendering:auto;image-rendering:auto;shape-rendering:auto;text-rendering:auto;enable-background:accumulate;stop-color:#000000;stop-opacity:1"
           d="m 130.68945,57.203125 c -58.382735,-3e-6 -105.740233,47.357495 -105.740231,105.740235 0,58.38274 47.357497,105.73828 105.740231,105.73828 58.38274,0 105.74024,-47.35555 105.74024,-105.73828 0,-58.38274 -47.3575,-105.740235 -105.74024,-105.740235 z m 0,2.621094 c 56.96617,0 103.11915,46.152971 103.11914,103.119141 0,56.96617 -46.15297,103.11719 -103.11914,103.11719 -56.966164,0 -103.119138,-46.15102 -103.119138,-103.11719 -2e-6,-56.96617 46.152972,-103.119144 103.119138,-103.119141 z"
           id="path901" />
        <path
           style="color:#000000;font-style:normal;font-variant:normal;font-weight:normal;font-stretch:normal;font-size:medium;line-height:normal;font-family:sans-serif;font-variant-ligatures:normal;font-variant-position:normal;font-variant-caps:normal;font-variant-numeric:normal;font-variant-alternates:normal;font-variant-east-asian:normal;font-feature-settings:normal;font-variation-settings:normal;text-indent:0;text-align:start;text-decoration:none;text-decoration-line:none;text-decoration-style:solid;text-decoration-color:#000000;letter-spacing:normal;word-spacing:normal;text-transform:none;writing-mode:lr-tb;direction:ltr;text-orientation:mixed;dominant-baseline:auto;baseline-shift:baseline;text-anchor:start;white-space:normal;shape-padding:0;shape-margin:0;inline-size:0;clip-rule:nonzero;display:inline;overflow:visible;visibility:visible;isolation:auto;mix-blend-mode:normal;color-interpolation:sRGB;color-interpolation-filters:linearRGB;solid-color:#000000;solid-opacity:1;vector-effect:none;fill:url(#radialGradient3517);fill-opacity:1;fill-rule:nonzero;stroke:none;stroke-width:2.62114;stroke-linecap:round;stroke-linejoin:round;stroke-miterlimit:4;stroke-dasharray:none;stroke-dashoffset:0;stroke-opacity:1;paint-order:stroke fill markers;color-rendering:auto;image-rendering:auto;shape-rendering:auto;text-rendering:auto;enable-background:accumulate;stop-color:#000000;stop-opacity:1"
           d="m 235.11827,162.94243 c 0,57.67445 -46.75438,104.42883 -104.42883,104.42883 -57.674452,0 -104.428835,-46.75438 -104.428835,-104.42883 -2e-6,-57.67445 46.754381,-104.428837 104.428835,-104.428834 57.67445,0 104.42883,46.754384 104.42883,104.428834 z"
           id="path903" />
      </g>
      <g
         id="g3422"
         style="display:inline;opacity:1;fill:url(#radialGradient3460);fill-opacity:1"
         transform="matrix(0.990666,0,0,0.990666,5.726848,-4.2610156)">
        <g
           id="g941"
           style="opacity:1;fill:url(#radialGradient943)">
          <path
             style="color:#000000;font-style:normal;font-variant:normal;font-weight:normal;font-stretch:normal;font-size:medium;line-height:normal;font-family:sans-serif;font-variant-ligatures:normal;font-variant-position:normal;font-variant-caps:normal;font-variant-numeric:normal;font-variant-alternates:normal;font-variant-east-asian:normal;font-feature-settings:normal;font-variation-settings:normal;text-indent:0;text-align:start;text-decoration:none;text-decoration-line:none;text-decoration-style:solid;text-decoration-color:#000000;letter-spacing:normal;word-spacing:normal;text-transform:none;writing-mode:lr-tb;direction:ltr;text-orientation:mixed;dominant-baseline:auto;baseline-shift:baseline;text-anchor:start;white-space:normal;shape-padding:0;shape-margin:0;inline-size:0;clip-rule:nonzero;display:inline;overflow:visible;visibility:visible;isolation:auto;mix-blend-mode:normal;color-interpolation:sRGB;color-interpolation-filters:linearRGB;solid-color:#000000;solid-opacity:1;vector-effect:none;fill:#000000;fill-opacity:1;fill-rule:nonzero;stroke:none;stroke-width:2.64583;stroke-linecap:butt;stroke-linejoin:round;stroke-miterlimit:4;stroke-dasharray:none;stroke-dashoffset:0;stroke-opacity:1;paint-order:stroke fill markers;color-rendering:auto;image-rendering:auto;shape-rendering:auto;text-rendering:auto;enable-background:accumulate;stop-color:#000000;stop-opacity:1"
             d="m 125.25586,82.367188 -7.80274,0.117187 -7.80273,0.117187 a 1.3230472,1.3230472 0 0 0 -0.0937,0.0059 l -3.72852,0.318359 c -2.74904,0.23454 -4.7381,0.419019 -6.121089,0.572266 -0.691494,0.07662 -1.230078,0.145393 -1.65039,0.210937 -0.420313,0.06554 -0.67569,0.0985 -1.033203,0.234375 l -0.462891,0.175782 a 1.3230472,1.3230472 0 0 0 0.257812,2.541015 l 0.72461,0.119141 c 0.587597,0.09556 1.715151,0.184683 2.824221,0.253906 11.57124,0.722219 26.27309,3.835047 32.03711,6.613281 l 1.57031,0.757813 0.4707,0.451172 -0.68945,0.30664 -1.60156,0.259766 -1.67578,0.269531 -6.98633,0.128906 -7.04297,0.126954 -6.76758,-0.234375 C 92.274571,95.108414 87.132324,94.983634 79.111328,94.970703 l -8.599609,-0.01367 a 1.3230472,1.3230472 0 0 0 -0.248047,0.02344 l -1.865234,0.353515 c -2.86785,0.544363 -5.560191,1.362822 -7.580079,2.337891 l -1.65625,0.798828 A 1.3230472,1.3230472 0 0 0 58.9375,98.609375 l -1.400391,1.060547 -1.398437,1.060548 a 1.3230472,1.3230472 0 0 0 -0.234375,0.22851 l -1.029297,1.28711 -1.03125,1.28711 a 1.3230472,1.3230472 0 0 0 -0.150391,0.23242 l -0.9375,1.86915 -0.9375,1.86914 a 1.3230472,1.3230472 0 0 0 -0.111328,0.31836 l -0.330078,1.54882 -0.330078,1.55079 a 1.3230472,1.3230472 0 0 0 -0.02734,0.33789 l 0.103516,2.17578 0.103515,2.17578 a 1.3230472,1.3230472 0 0 0 0.05859,0.33594 l 0.556641,1.75976 0.556641,1.76172 a 1.3230472,1.3230472 0 0 0 0.0918,0.2207 l 1.035157,1.95117 c 4.460483,8.41843 14.668765,17.55441 29.951171,27.36719 -2.938939,-0.51903 -5.932992,-1.07211 -8.492187,-1.39648 l -4.1875,-0.53125 a 1.3230472,1.3230472 0 0 0 -0.08984,-0.008 l -3.996093,-0.23047 -3.998047,-0.23242 a 1.3230472,1.3230472 0 0 0 -0.125,0 l -3.625,0.13281 -3.625,0.13281 a 1.3230472,1.3230472 0 0 0 -0.142579,0.0117 l -2.90039,0.42187 c -1.661082,0.2417 -4.024184,0.70604 -5.425781,1.07032 l -2.382813,0.61914 a 1.3230472,1.3230472 0 0 0 -0.18164,0.0625 l -2.191407,0.92383 -2.193359,0.92382 a 1.3230472,1.3230472 0 0 0 -0.210938,0.11328 l -1.628906,1.06836 -1.626953,1.06836 a 1.3230472,1.3230472 0 0 0 -0.185547,0.14649 l -1.527344,1.45117 -1.527343,1.45117 a 1.3230472,1.3230472 0 0 0 -0.1875,0.22266 l -1.208985,1.80664 -1.207031,1.80469 a 1.3230472,1.3230472 0 0 0 -0.134766,0.25976 l -0.669921,1.73047 c -0.412081,1.06502 -0.881142,2.66423 -1.117188,3.80273 l -0.386719,1.86524 a 1.3230472,1.3230472 0 0 0 -0.02539,0.1875 l -0.132813,2.17578 -0.132812,2.17578 a 1.3230472,1.3230472 0 0 0 0.0059,0.22266 l 0.246094,2.27929 c 1.442088,13.38493 9.316554,24.9834 21.927734,33.69336 12.61118,8.70997 29.965114,14.6023 50.638668,16.78711 5.06621,0.53541 7.65635,0.87036 9.38868,1.16016 l -1.02344,0.13086 c -4.05563,0.51196 -7.46268,0.72634 -13.117189,0.82422 l -5.240234,0.0898 -3.789063,-0.18555 c -5.692683,-0.28094 -10.913937,-0.76414 -15.728516,-1.45117 l -4.302734,-0.61328 -3.681641,-0.80664 c -2.025168,-0.44405 -4.695327,-1.09702 -5.810546,-1.41602 -0.775303,-0.22176 -1.366413,-0.37164 -1.841797,-0.45507 -0.237693,-0.0417 -0.433621,-0.0739 -0.705079,-0.0664 -0.135728,0.004 -0.292624,0.005 -0.554687,0.10547 -0.262063,0.1005 -0.741035,0.44757 -0.863281,0.99023 -0.122246,0.54266 0.08163,0.89765 0.201172,1.08204 0.119545,0.18438 0.219894,0.27542 0.3125,0.35937 0.18521,0.16789 0.355004,0.28482 0.564453,0.41797 0.418897,0.26629 0.976228,0.56979 1.714843,0.94531 9.830555,4.99796 23.782473,8.31382 39.44336,9.46485 l 3.832031,0.2832 a 1.3230472,1.3230472 0 0 0 0.111328,0.002 l 7.14844,-0.0742 7.14844,-0.0762 a 1.3230472,1.3230472 0 0 0 0.0977,-0.004 l 2.69336,-0.22851 c 14.92208,-1.26693 27.08561,-4.15853 34.04297,-8.32227 l 1.47266,-0.88281 a 1.3230472,1.3230472 0 0 0 0.28125,-0.22461 l 1.00781,-1.06641 1.00781,-1.06445 a 1.3230472,1.3230472 0 0 0 0.32227,-0.58789 l 0.14258,-0.5625 0.14062,-0.5625 a 1.3230472,1.3230472 0 0 0 -0.0898,-0.89062 l -0.33594,-0.70704 -0.33789,-0.70703 a 1.3230472,1.3230472 0 0 0 -0.48438,-0.54687 l -0.96289,-0.61133 c -3.20958,-2.03547 -8.9164,-3.04123 -22.60351,-4.55078 -30.705018,-3.38646 -50.386567,-8.12158 -65.439457,-15.64649 l -3.558593,-1.77929 -2.214844,-1.44531 c -3.8525,-2.51362 -6.206789,-4.74978 -7.464844,-6.89649 l -0.412109,-0.70312 -0.289063,-1.17188 -0.263672,-1.07031 0.269532,-1.33789 0.294921,-1.45899 0.847657,-1.70898 0.845703,-1.71094 0.992187,-1.13672 c 5.629835,-6.45892 17.08071,-9.79397 42.675782,-11.6582 3.197109,-0.23286 10.06123,-0.69575 15.00977,-1.01172 3.9111,-0.24972 8.8522,-0.66455 12.86523,-1.05469 2.00652,-0.19507 3.77944,-0.38341 5.08203,-0.54297 0.6513,-0.0798 1.18202,-0.15322 1.58399,-0.21874 0.20098,-0.0328 0.36673,-0.0613 0.52343,-0.0977 0.0784,-0.0182 0.15315,-0.036 0.25391,-0.0703 0.10076,-0.0343 0.19523,0.0274 0.57031,-0.34766 l 0.14453,-0.14453 a 1.3230472,1.3230472 0 0 0 0,-1.8711 l -0.19726,-0.19921 c -0.33337,-0.3334 -0.37768,-0.30534 -0.69141,-0.51758 -0.31373,-0.21224 -0.76894,-0.5125 -1.41601,-0.9336 -1.29416,-0.84219 -3.35452,-2.16814 -6.53516,-4.20703 -20.70136,-13.27023 -36.178116,-24.56895 -42.75586,-31.10937 l -2.828125,-2.8125 -0.84961,-1.32813 c -0.964639,-1.50599 -1.392578,-2.8193 -1.392578,-3.44531 v -0.4082 l 0.261719,-0.51172 c 0.345268,-0.67678 0.904917,-1.20619 2.365234,-1.94336 l 1.097657,-0.55273 1.773437,-0.47071 c 2.463408,-0.65188 4.998512,-1.03622 8.818359,-1.32422 l 3.150391,-0.23828 7.294926,0.11914 7.3125,0.11719 5.13476,0.42773 c 9.53804,0.79344 21.30515,2.33994 28.34375,3.71875 1.17518,0.23021 2.97972,0.46275 4.20703,0.54493 l 2.07227,0.13867 a 1.3230472,1.3230472 0 0 0 0.31445,-0.0156 l 1.86914,-0.32422 1.86914,-0.32421 a 1.3230472,1.3230472 0 0 0 0.26758,-0.0762 l 1.13672,-0.45898 c 0.80033,-0.32292 1.90346,-0.92998 2.75586,-1.48633 l 1.39258,-0.9082 a 1.3230472,1.3230472 0 0 0 0.27148,-0.23438 l 0.94532,-1.07617 0.94726,-1.07422 a 1.3230472,1.3230472 0 0 0 0.19141,-0.28906 l 0.61523,-1.24219 0.61328,-1.24414 a 1.3230472,1.3230472 0 0 0 0.10938,-0.3125 l 0.30468,-1.44922 v -0.002 c 0.41223,-1.95471 0.41607,-3.45572 0.008,-5.39648 l -0.3086,-1.460942 a 1.3230472,1.3230472 0 0 0 -0.0898,-0.273437 l -0.62109,-1.371094 c -4.0229,-8.871159 -14.87908,-13.752518 -31.13904,-14.755499 l -4.00781,-0.248047 a 1.3230472,1.3230472 0 0 0 -0.10156,-0.002 z m -0.01,2.646484 3.95508,0.24414 c 15.80642,0.975005 25.46514,5.649916 28.89258,13.208985 l 0.5625,1.238281 0.27734,1.318362 c 0.36101,1.71614 0.36008,2.57233 -0.006,4.30664 l -0.27148,1.28711 -0.54102,1.09375 -0.53711,1.08594 -0.83007,0.94335 -0.82617,0.94141 -1.24219,0.81055 c -0.68034,0.44405 -1.85254,1.06718 -2.30078,1.24804 l -1.00586,0.40625 -1.73047,0.29883 -1.71289,0.29688 -1.91407,-0.12696 c -1.05179,-0.0704 -2.88306,-0.30997 -3.87304,-0.5039 -7.2166,-1.41369 -18.99375,-2.95581 -28.63477,-3.75781 l -5.17969,-0.43164 a 1.3230472,1.3230472 0 0 0 -0.0879,-0.004 l -7.35546,-0.11914 -7.355473,-0.11914 a 1.3230472,1.3230472 0 0 0 -0.121094,0.004 l -3.210937,0.24219 c -3.909689,0.29477 -6.644493,0.70488 -9.294922,1.40625 l -1.908203,0.50391 a 1.3230472,1.3230472 0 0 0 -0.257813,0.0977 l -1.220703,0.61719 c -1.701443,0.85889 -2.871288,1.80989 -3.53125,3.10352 l -0.404297,0.79492 a 1.3230472,1.3230472 0 0 0 -0.144531,0.59961 v 0.72656 c 0,1.53688 0.689902,3.12654 1.808594,4.87305 l 0.927734,1.45117 a 1.3230472,1.3230472 0 0 0 0.181641,0.22461 l 2.93164,2.91406 c 6.960584,6.92108 22.423724,18.14498 43.193364,31.45899 2.9155,1.86892 4.68454,3.00861 5.98046,3.84961 -1.17777,0.1362 -2.48759,0.28007 -4.12695,0.43945 -3.98482,0.3874 -8.91319,0.80198 -12.7793,1.04883 -4.95712,0.31651 -11.815684,0.77933 -15.033199,1.01367 -25.760563,1.87628 -37.997744,5.12342 -44.478515,12.55859 l -1.101563,1.26563 A 1.3230472,1.3230472 0 0 0 50.75,178.1543 l -0.921875,1.86523 -0.923828,1.86524 a 1.3230472,1.3230472 0 0 0 -0.111328,0.32421 l -0.328125,1.62891 -0.330078,1.62891 a 1.3230472,1.3230472 0 0 0 0.01367,0.57812 l 0.333984,1.35742 0.335937,1.35743 a 1.3230472,1.3230472 0 0 0 0.142579,0.35351 l 0.509765,0.86914 c 1.573037,2.68419 4.26199,5.14151 8.298828,7.77539 l 2.279297,1.48633 a 1.3230472,1.3230472 0 0 0 0.13086,0.0742 l 3.626953,1.81445 c 15.480174,7.7385 35.484699,12.50583 66.333981,15.90821 13.62454,1.50264 19.22597,2.73019 21.47461,4.15625 l 0.64063,0.40625 0.17383,0.36328 0.13281,0.27734 -0.0254,0.10156 -0.0566,0.22657 -0.77149,0.8125 -0.88281,0.93359 -1.3164,0.78906 c -6.23262,3.73001 -18.21118,6.70725 -32.90821,7.95508 l -2.64453,0.22461 -7.09765,0.0742 -7.093757,0.0762 -3.777344,-0.2793 c -10.548964,-0.77531 -20.170766,-2.62914 -28.267578,-5.20898 l 3.224609,0.45898 c 4.9081,0.70038 10.208829,1.19026 15.970704,1.47461 L 90.75,230.07227 a 1.3230472,1.3230472 0 0 0 0.08789,0 l 5.283203,-0.0918 c 5.703837,-0.0987 9.256247,-0.32012 13.404297,-0.84375 l 2.58984,-0.32813 a 1.3230472,1.3230472 0 0 0 0.25,-0.0566 l 1.03516,-0.34375 1.03516,-0.34179 a 1.3230472,1.3230472 0 0 0 0.88476,-1.01368 l 0.0684,-0.36523 0.0684,-0.36719 a 1.3230472,1.3230472 0 0 0 -0.79101,-1.46289 l -0.72266,-0.30273 c -1.73982,-0.72695 -4.01918,-1.03503 -12.83594,-1.9668 C 80.775371,220.4392 63.828361,214.63693 51.693438,206.2559 39.558516,197.87487 32.24271,186.98775 30.892657,174.45707 l -0.234375,-2.16992 0.125,-2.0625 0.126953,-2.08203 0.367188,-1.77149 c 0.18923,-0.91269 0.671674,-2.54825 0.996094,-3.38671 l 0.615234,-1.59376 1.126953,-1.68359 1.126953,-1.68359 1.419922,-1.34961 1.441406,-1.36914 1.529297,-1.00391 1.527344,-1.00195 2.080078,-0.87695 2.103516,-0.88672 2.289062,-0.59571 c 1.219379,-0.31692 3.612907,-0.78914 5.142578,-1.01172 l 2.830078,-0.41211 3.554688,-0.13085 3.5625,-0.12891 3.935547,0.22656 3.951172,0.22852 4.142578,0.52539 c 3.67163,0.46537 7.425975,1.08134 12.234375,2.01172 l 1.501953,0.29101 a 1.3230472,1.3230472 0 0 0 1.574219,-1.30273 v -0.23438 l -0.002,-0.23437 a 1.3230472,1.3230472 0 0 0 -0.619141,-1.11719 l -2.640625,-1.6582 C 70.502785,137.82155 60.084631,128.36944 55.863281,120.40234 l -0.978515,-1.8457 -0.519532,-1.64648 -0.503906,-1.59571 -0.0957,-2.0039 -0.0957,-2.00586 0.294922,-1.38281 0.294922,-1.38282 0.861328,-1.71679 0.875,-1.74415 0.943359,-1.17968 0.927735,-1.15821 1.269531,-0.96289 1.292969,-0.98046 1.539062,-0.74219 c 1.702482,-0.821849 4.241335,-1.611917 6.923828,-2.121096 l 1.740234,-0.332032 8.47461,0.01367 c 7.995452,0.01289 13.080749,0.137899 30.482422,0.742188 l 6.80078,0.236328 a 1.3230472,1.3230472 0 0 0 0.0703,0 l 7.08008,-0.128906 7.07812,-0.128906 a 1.3230472,1.3230472 0 0 0 0.1875,-0.01758 l 1.76953,-0.285156 1.76953,-0.287109 a 1.3230472,1.3230472 0 0 0 0.32422,-0.0957 l 0.97656,-0.431641 0.97461,-0.431641 a 1.3230472,1.3230472 0 0 0 0.78907,-1.208984 v -0.490234 -0.488282 a 1.3230472,1.3230472 0 0 0 -0.40625,-0.953125 l -0.67383,-0.648437 -0.67383,-0.646485 a 1.3230472,1.3230472 0 0 0 -0.3418,-0.240234 l -1.76172,-0.847656 c -5.03514,-2.42692 -14.67415,-4.699316 -24.24414,-5.978516 l 0.42774,-0.03711 7.75586,-0.117188 z"
             id="path945" />
          <path
             style="color:#000000;font-style:normal;font-variant:normal;font-weight:normal;font-stretch:normal;font-size:medium;line-height:normal;font-family:sans-serif;font-variant-ligatures:normal;font-variant-position:normal;font-variant-caps:normal;font-variant-numeric:normal;font-variant-alternates:normal;font-variant-east-asian:normal;font-feature-settings:normal;font-variation-settings:normal;text-indent:0;text-align:start;text-decoration:none;text-decoration-line:none;text-decoration-style:solid;text-decoration-color:#000000;letter-spacing:normal;word-spacing:normal;text-transform:none;writing-mode:lr-tb;direction:ltr;text-orientation:mixed;dominant-baseline:auto;baseline-shift:baseline;text-anchor:start;white-space:normal;shape-padding:0;shape-margin:0;inline-size:0;clip-rule:nonzero;display:inline;overflow:visible;visibility:visible;isolation:auto;mix-blend-mode:normal;color-interpolation:sRGB;color-interpolation-filters:linearRGB;solid-color:#000000;solid-opacity:1;vector-effect:none;fill:url(#radialGradient3462);fill-opacity:1;fill-rule:nonzero;stroke:none;stroke-width:2.64583;stroke-linecap:butt;stroke-linejoin:round;stroke-miterlimit:4;stroke-dasharray:none;stroke-dashoffset:0;stroke-opacity:1;paint-order:stroke fill markers;color-rendering:auto;image-rendering:auto;shape-rendering:auto;text-rendering:auto;enable-background:accumulate;stop-color:#000000;stop-opacity:1"
             d="m 95.891397,234.47844 c -15.531659,-1.14153 -29.351835,-4.45153 -38.940266,-9.32639 -2.875346,-1.46186 -2.801739,-1.7886 0.208924,-0.92744 1.189092,0.34013 3.840242,0.9864 5.891441,1.43616 l 3.729453,0.81774 4.351028,0.62088 c 4.861339,0.6937 10.122894,1.17885 15.850173,1.4615 l 3.833048,0.18916 5.283391,-0.0914 c 5.679171,-0.0983 9.158431,-0.31741 13.260271,-0.83521 l 2.5899,-0.32694 1.03513,-0.34315 1.03512,-0.34314 0.0686,-0.36649 0.0686,-0.3665 -0.72224,-0.30177 c -1.46059,-0.61028 -3.65919,-0.94025 -12.46633,-1.871 -41.005688,-4.33354 -68.598978,-23.39096 -71.391119,-49.30657 l -0.245551,-2.27911 0.132543,-2.17552 0.132542,-2.17551 0.386615,-1.86473 c 0.212638,-1.0256 0.68791,-2.64342 1.05616,-3.59516 l 0.669545,-1.73044 1.207905,-1.80584 1.207906,-1.80583 1.527471,-1.45095 1.527472,-1.45095 1.62779,-1.06863 1.627791,-1.06863 2.191974,-0.92389 2.191973,-0.92388 2.382706,-0.61926 c 1.310488,-0.3406 3.688014,-0.8092 5.283391,-1.04134 l 2.900685,-0.42207 3.625857,-0.13264 3.625856,-0.13265 3.997166,0.23094 3.997165,0.23093 4.186911,0.53067 c 3.704869,0.46958 7.491815,1.09257 12.31919,2.02662 l 1.50214,0.29065 -6.21e-4,-0.23492 -6.22e-4,-0.23492 -2.63992,-1.65754 C 69.706445,138.88379 59.12891,129.39191 54.693857,121.02148 l -1.033744,-1.95103 -0.556411,-1.76113 -0.55641,-1.76113 -0.103447,-2.17551 -0.103446,-2.17552 0.329977,-1.54999 0.329978,-1.54999 0.938057,-1.86867 0.938055,-1.86868 1.030663,-1.28742 1.030665,-1.28741 1.399318,-1.06118 1.399315,-1.061176 1.657535,-0.800146 c 1.861185,-0.898458 4.476542,-1.702422 7.251713,-2.229193 l 1.864726,-0.353952 8.59846,0.01386 c 8.008224,0.01291 13.121648,0.137128 30.526019,0.741511 l 6.80255,0.236223 7.0793,-0.128894 7.0793,-0.128894 1.76944,-0.286179 1.76945,-0.286182 0.97584,-0.431661 0.97585,-0.431664 v -0.488985 -0.488987 l -0.67338,-0.647748 -0.67337,-0.647748 -1.76113,-0.848856 c -6.18278,-2.980077 -20.79962,-6.009298 -32.52911,-6.741394 -1.08258,-0.06757 -2.294652,-0.175926 -2.693496,-0.240792 l -0.725172,-0.11794 0.462428,-0.17575 c 0.519591,-0.197477 2.95861,-0.467742 8.44682,-0.935979 l 3.72945,-0.318184 7.80334,-0.117629 7.80333,-0.117629 4.0066,0.247144 c 16.03319,0.988993 26.29165,5.767866 30.01664,13.98316 l 0.62117,1.369942 0.30725,1.460652 c 0.3847,1.8288 0.3833,3.00721 -0.006,4.85223 l -0.30585,1.45034 -0.61428,1.24315 -0.61428,1.24315 -0.94613,1.07526 -0.94613,1.07526 -1.39341,0.90944 c -0.76637,0.5002 -1.90419,1.11554 -2.52848,1.36743 l -1.13508,0.45798 -1.8692,0.32412 -1.86921,0.32411 -2.07192,-0.13868 c -1.13955,-0.0763 -2.95765,-0.31219 -4.04023,-0.52426 -7.1276,-1.39625 -18.89934,-2.94119 -28.48887,-3.73891 l -5.1798,-0.4309 -7.35531,-0.11871 -7.355308,-0.11871 -3.211473,0.24213 c -3.864768,0.29138 -6.499626,0.68856 -9.056545,1.36519 l -1.908425,0.50502 -1.220374,0.61604 c -1.58088,0.79803 -2.446129,1.53858 -2.948744,2.52378 l -0.405298,0.79445 v 0.72619 c 0,1.08144 0.558455,2.53308 1.60012,4.15933 l 0.928994,1.45034 2.931076,2.91444 c 6.769164,6.73075 22.238927,17.99243 42.974427,31.28455 6.35976,4.0768 8.24282,5.30224 8.4202,5.47963 l 0.1989,0.1989 -0.14554,0.14554 c -0.28746,0.28746 -12.25083,1.45052 -20.02804,1.94709 -4.95283,0.31624 -11.814089,0.77857 -15.021401,1.01217 -25.677817,1.87026 -37.522086,5.16129 -43.577389,12.10834 l -1.103066,1.26551 -0.923141,1.86473 -0.923144,1.86472 -0.328825,1.62861 -0.328826,1.62861 0.335041,1.35769 0.335044,1.35768 0.509311,0.86908 c 1.415546,2.41545 3.937033,4.76241 7.881702,7.33616 l 2.27911,1.48704 3.625857,1.81256 c 15.266532,7.6317 35.109847,12.3836 65.886997,15.77802 13.65582,1.5061 19.30958,2.623 22.03869,4.35376 l 0.96297,0.61069 0.33705,0.70681 0.33705,0.7068 -0.14115,0.56241 -0.14116,0.5624 -1.00804,1.0652 -1.00804,1.06519 -1.47343,0.88179 c -6.59499,3.94687 -18.66546,6.88165 -33.47501,8.13903 l -2.69349,0.22869 -7.14812,0.0754 -7.148114,0.0754 z"
             id="path947" />
        </g>
      </g>
      <g
         id="g949"
         style="display:inline;opacity:1">
        <path
           style="color:#000000;font-style:normal;font-variant:normal;font-weight:normal;font-stretch:normal;font-size:medium;line-height:normal;font-family:sans-serif;font-variant-ligatures:normal;font-variant-position:normal;font-variant-caps:normal;font-variant-numeric:normal;font-variant-alternates:normal;font-variant-east-asian:normal;font-feature-settings:normal;font-variation-settings:normal;text-indent:0;text-align:start;text-decoration:none;text-decoration-line:none;text-decoration-style:solid;text-decoration-color:#000000;letter-spacing:normal;word-spacing:normal;text-transform:none;writing-mode:lr-tb;direction:ltr;text-orientation:mixed;dominant-baseline:auto;baseline-shift:baseline;text-anchor:start;white-space:normal;shape-padding:0;shape-margin:0;inline-size:0;clip-rule:nonzero;display:inline;overflow:visible;visibility:visible;isolation:auto;mix-blend-mode:normal;color-interpolation:sRGB;color-interpolation-filters:linearRGB;solid-color:#000000;solid-opacity:1;vector-effect:none;fill:#000000;fill-opacity:1;fill-rule:nonzero;stroke:none;stroke-width:2.62114;stroke-linecap:butt;stroke-linejoin:miter;stroke-miterlimit:4;stroke-dasharray:none;stroke-dashoffset:0;stroke-opacity:1;paint-order:stroke fill markers;color-rendering:auto;image-rendering:auto;shape-rendering:auto;text-rendering:auto;enable-background:accumulate;stop-color:#000000;stop-opacity:1"
           d="m 188.85352,11.769531 c -0.42231,0.05559 -0.92317,0.246572 -1.28125,0.65625 -0.35809,0.409679 -0.48549,0.948767 -0.47657,1.390625 0.0178,0.883717 0.37901,1.609397 0.9375,2.519532 13.31691,21.701382 12.37666,37.777996 7.71289,49.205078 -2.33188,5.71354 -5.62888,10.266797 -8.63476,13.710937 -3.00588,3.44414 -5.647,5.685499 -6.94336,7.134766 -0.80516,0.900124 -1.37323,2.193856 -1.83594,3.859375 -0.46271,1.665518 -0.76478,3.683086 -0.75,5.880859 0.0296,4.395547 1.35296,9.555277 5.35547,13.697267 4.22613,4.37339 11.01641,7.51607 17.86914,7.17578 6.85273,-0.34029 13.70249,-4.42479 17.34961,-14.01953 12.07421,-31.764433 3.00397,-57.273322 -8.10742,-73.048829 -5.5557,-7.887754 -11.5849,-13.363311 -15.87305,-16.125 -1.07204,-0.690423 -2.03582,-1.212538 -2.89453,-1.564453 -0.85871,-0.351916 -1.58312,-0.583845 -2.42773,-0.472657 z m 1.2539,2.847657 c 0.0963,0.03198 0.0743,0.0048 0.18164,0.04883 0.64677,0.265056 1.4952,0.716752 2.46875,1.34375 3.89423,2.50799 9.78021,7.808092 15.14844,15.429687 10.73646,15.243191 19.55586,39.684493 7.80078,70.609375 -3.35847,8.83535 -9.08469,12.03674 -15.03125,12.33203 -5.94655,0.29529 -12.18126,-2.57674 -15.85351,-6.37695 -3.4483,-3.56847 -4.593,-8.00602 -4.61915,-11.894533 -0.0131,-1.944257 0.25973,-3.739913 0.6543,-5.160156 0.39457,-1.420244 0.96886,-2.484862 1.26367,-2.814453 0.96966,-1.084028 3.83088,-3.567302 6.96485,-7.158204 3.13396,-3.590901 6.6137,-8.383097 9.08789,-14.445312 4.94838,-12.124431 5.74534,-29.319617 -7.90625,-51.566406 -0.12762,-0.207968 -0.0826,-0.182569 -0.16016,-0.347656 z"
           id="path951" />
        <path
           style="color:#000000;font-style:normal;font-variant:normal;font-weight:normal;font-stretch:normal;font-size:medium;line-height:normal;font-family:sans-serif;font-variant-ligatures:normal;font-variant-position:normal;font-variant-caps:normal;font-variant-numeric:normal;font-variant-alternates:normal;font-variant-east-asian:normal;font-feature-settings:normal;font-variation-settings:normal;text-indent:0;text-align:start;text-decoration:none;text-decoration-line:none;text-decoration-style:solid;text-decoration-color:#000000;letter-spacing:normal;word-spacing:normal;text-transform:none;writing-mode:lr-tb;direction:ltr;text-orientation:mixed;dominant-baseline:auto;baseline-shift:baseline;text-anchor:start;white-space:normal;shape-padding:0;shape-margin:0;inline-size:0;clip-rule:nonzero;display:inline;overflow:visible;visibility:visible;isolation:auto;mix-blend-mode:normal;color-interpolation:sRGB;color-interpolation-filters:linearRGB;solid-color:#000000;solid-opacity:1;vector-effect:none;fill:url(#linearGradient2959);fill-opacity:1;fill-rule:nonzero;stroke:none;stroke-width:2.62114;stroke-linecap:butt;stroke-linejoin:miter;stroke-miterlimit:4;stroke-dasharray:none;stroke-dashoffset:0;stroke-opacity:1;paint-order:stroke fill markers;color-rendering:auto;image-rendering:auto;shape-rendering:auto;text-rendering:auto;enable-background:accumulate;stop-color:#000000;stop-opacity:1"
           d="m 181.14382,87.260882 c 4.53205,-5.066588 34.97456,-27.662233 8.00607,-71.610405 -7.99945,-13.0359982 51.61062,24.174739 27.78133,86.864053 -7.00559,18.43009 -25.15218,14.57302 -33.05056,6.39941 -7.45081,-7.71045 -4.93679,-19.193628 -2.73684,-21.653058 z"
           id="path953" />
      </g>
      <g
         id="g955"
         style="display:inline;opacity:1">
        <path
           style="color:#000000;font-style:normal;font-variant:normal;font-weight:normal;font-stretch:normal;font-size:medium;line-height:normal;font-family:sans-serif;font-variant-ligatures:normal;font-variant-position:normal;font-variant-caps:normal;font-variant-numeric:normal;font-variant-alternates:normal;font-variant-east-asian:normal;font-feature-settings:normal;font-variation-settings:normal;text-indent:0;text-align:start;text-decoration:none;text-decoration-line:none;text-decoration-style:solid;text-decoration-color:#000000;letter-spacing:normal;word-spacing:normal;text-transform:none;writing-mode:lr-tb;direction:ltr;text-orientation:mixed;dominant-baseline:auto;baseline-shift:baseline;text-anchor:start;white-space:normal;shape-padding:0;shape-margin:0;inline-size:0;clip-rule:nonzero;display:inline;overflow:visible;visibility:visible;isolation:auto;mix-blend-mode:normal;color-interpolation:sRGB;color-interpolation-filters:linearRGB;solid-color:#000000;solid-opacity:1;vector-effect:none;fill:#000000;fill-opacity:1;fill-rule:nonzero;stroke:none;stroke-width:2.62114;stroke-linecap:butt;stroke-linejoin:miter;stroke-miterlimit:4;stroke-dasharray:none;stroke-dashoffset:0;stroke-opacity:1;paint-order:stroke fill markers;color-rendering:auto;image-rendering:auto;shape-rendering:auto;text-rendering:auto;enable-background:accumulate;stop-color:#000000;stop-opacity:1"
           d="m 35.320312,203.60742 -0.763671,0.92188 c 0,0 -2.78094,3.35569 -5.513672,6.91211 -1.366366,1.7782 -2.719775,3.60415 -3.726563,5.11718 -0.503394,0.75652 -0.919546,1.43042 -1.220703,2.02149 -0.150578,0.29553 -0.27337,0.56708 -0.365234,0.86133 -0.09186,0.29424 -0.220722,0.60651 -0.05078,1.17968 0.218226,0.73604 0.697947,0.93001 1.013671,1.07227 0.315724,0.14226 0.617048,0.22009 0.958985,0.29102 0.683874,0.14185 1.518904,0.23237 2.496094,0.30078 1.954379,0.13681 4.45297,0.1722 6.9375,0.16406 4.969058,-0.0163 9.867187,-0.2168 9.867187,-0.2168 l 1.755859,-0.0723 -0.568359,-1.66211 c 0,0 -1.446102,-4.21946 -3.882813,-8.94727 -2.526546,-4.90211 -5.951171,-7.26562 -5.951171,-7.26562 z m 0.416016,3.64649 c 0.935374,0.78344 2.541215,2.29432 4.191406,5.49609 1.576226,3.05826 2.507664,5.37707 3.087891,6.9043 -1.343719,0.0499 -3.952651,0.16076 -7.9375,0.17382 -2.451805,0.008 -4.916076,-0.0301 -6.746094,-0.1582 -0.731823,-0.0512 -1.252655,-0.12634 -1.716797,-0.20117 0.224532,-0.40747 0.491557,-0.86904 0.882813,-1.45703 0.944371,-1.41924 2.275762,-3.21928 3.623047,-4.97266 2.279724,-2.96686 3.953176,-4.98097 4.615234,-5.78515 z"
           id="path957" />
        <path
           style="color:#000000;font-style:normal;font-variant:normal;font-weight:normal;font-stretch:normal;font-size:medium;line-height:normal;font-family:sans-serif;font-variant-ligatures:normal;font-variant-position:normal;font-variant-caps:normal;font-variant-numeric:normal;font-variant-alternates:normal;font-variant-east-asian:normal;font-feature-settings:normal;font-variation-settings:normal;text-indent:0;text-align:start;text-decoration:none;text-decoration-line:none;text-decoration-style:solid;text-decoration-color:#000000;letter-spacing:normal;word-spacing:normal;text-transform:none;writing-mode:lr-tb;direction:ltr;text-orientation:mixed;dominant-baseline:auto;baseline-shift:baseline;text-anchor:start;white-space:normal;shape-padding:0;shape-margin:0;inline-size:0;clip-rule:nonzero;display:inline;overflow:visible;visibility:visible;isolation:auto;mix-blend-mode:normal;color-interpolation:sRGB;color-interpolation-filters:linearRGB;solid-color:#000000;solid-opacity:1;vector-effect:none;fill:url(#linearGradient2963);fill-opacity:1;fill-rule:nonzero;stroke:none;stroke-width:2.62114;stroke-linecap:butt;stroke-linejoin:miter;stroke-miterlimit:4;stroke-dasharray:none;stroke-dashoffset:0;stroke-opacity:1;paint-order:stroke fill markers;color-rendering:auto;image-rendering:auto;shape-rendering:auto;text-rendering:auto;enable-background:accumulate;stop-color:#000000;stop-opacity:1"
           d="m 35.566176,205.36563 c 0,0 -11.078817,13.37011 -10.630393,14.88255 0.438112,1.47767 19.964395,0.67412 19.964395,0.67412 0,0 -1.418831,-4.13852 -3.806793,-8.77174 -2.387961,-4.63322 -5.527209,-6.78493 -5.527209,-6.78493 z"
           id="path959" />
      </g>
      <g
         id="g961"
         style="display:inline;opacity:1">
        <path
           style="color:#000000;font-style:normal;font-variant:normal;font-weight:normal;font-stretch:normal;font-size:medium;line-height:normal;font-family:sans-serif;font-variant-ligatures:normal;font-variant-position:normal;font-variant-caps:normal;font-variant-numeric:normal;font-variant-alternates:normal;font-variant-east-asian:normal;font-feature-settings:normal;font-variation-settings:normal;text-indent:0;text-align:start;text-decoration:none;text-decoration-line:none;text-decoration-style:solid;text-decoration-color:#000000;letter-spacing:normal;word-spacing:normal;text-transform:none;writing-mode:lr-tb;direction:ltr;text-orientation:mixed;dominant-baseline:auto;baseline-shift:baseline;text-anchor:start;white-space:normal;shape-padding:0;shape-margin:0;inline-size:0;clip-rule:nonzero;display:inline;overflow:visible;visibility:visible;isolation:auto;mix-blend-mode:normal;color-interpolation:sRGB;color-interpolation-filters:linearRGB;solid-color:#000000;solid-opacity:1;vector-effect:none;fill:#000000;fill-opacity:1;fill-rule:nonzero;stroke:none;stroke-width:2.62114;stroke-linecap:butt;stroke-linejoin:miter;stroke-miterlimit:4;stroke-dasharray:none;stroke-dashoffset:0;stroke-opacity:1;paint-order:stroke fill markers;color-rendering:auto;image-rendering:auto;shape-rendering:auto;text-rendering:auto;enable-background:accumulate;stop-color:#000000;stop-opacity:1"
           d="m 143.67969,229.32227 c -1.30166,0.004 -2.70687,0.22176 -4.14063,0.79492 -5.74132,2.29514 -7.92383,8.60937 -7.92383,8.60937 l -0.21093,0.58008 0.3125,0.53125 c 0,0 4.27937,7.29723 8.92382,14.49414 2.32223,3.59846 4.73345,7.17075 6.7754,9.82813 1.02097,1.32868 1.94166,2.42493 2.76757,3.21875 0.41296,0.39691 0.79549,0.71973 1.22657,0.9707 0.43107,0.25097 0.99672,0.52536 1.75,0.2832 0.77621,-0.24953 1.08077,-0.85455 1.25976,-1.32812 0.17899,-0.47357 0.2661,-0.96801 0.33008,-1.54102 0.12797,-1.146 0.12989,-2.59525 0.0586,-4.29492 -0.14259,-3.39933 -0.59661,-7.77213 -1.13867,-12.11523 -1.08411,-8.68622 -2.52148,-17.24024 -2.52148,-17.24024 l -0.0977,-0.57812 -0.49609,-0.3125 c 0,0 -2.97003,-1.91171 -6.875,-1.90039 z m 0.0273,2.6289 c 2.67358,0.004 4.46434,1.00782 4.95703,1.28711 0.10796,0.64664 1.37263,8.17543 2.4043,16.44141 0.53753,4.30681 0.9844,8.63982 1.12109,11.89843 0.0684,1.62931 0.0551,2.99917 -0.0449,3.89454 -0.006,0.057 -0.0162,0.0622 -0.0234,0.11523 -0.0508,-0.0461 -0.067,-0.0477 -0.12109,-0.0996 -0.64981,-0.62455 -1.52743,-1.65246 -2.50586,-2.92578 -1.95686,-2.54664 -4.34809,-6.08477 -6.65039,-9.65234 -4.40975,-6.83323 -8.15154,-13.21306 -8.49023,-13.78907 0.3314,-0.78763 2.17486,-4.97794 6.1582,-6.57031 1.09271,-0.43682 2.18002,-0.60099 3.19531,-0.59961 z"
           id="path963" />
        <path
           style="color:#000000;font-style:normal;font-variant:normal;font-weight:normal;font-stretch:normal;font-size:medium;line-height:normal;font-family:sans-serif;font-variant-ligatures:normal;font-variant-position:normal;font-variant-caps:normal;font-variant-numeric:normal;font-variant-alternates:normal;font-variant-east-asian:normal;font-feature-settings:normal;font-variation-settings:normal;text-indent:0;text-align:start;text-decoration:none;text-decoration-line:none;text-decoration-style:solid;text-decoration-color:#000000;letter-spacing:normal;word-spacing:normal;text-transform:none;writing-mode:lr-tb;direction:ltr;text-orientation:mixed;dominant-baseline:auto;baseline-shift:baseline;text-anchor:start;white-space:normal;shape-padding:0;shape-margin:0;inline-size:0;clip-rule:nonzero;display:inline;overflow:visible;visibility:visible;isolation:auto;mix-blend-mode:normal;color-interpolation:sRGB;color-interpolation-filters:linearRGB;solid-color:#000000;solid-opacity:1;vector-effect:none;fill:url(#linearGradient2965);fill-opacity:1;fill-rule:nonzero;stroke:none;stroke-width:2.62114;stroke-linecap:butt;stroke-linejoin:miter;stroke-miterlimit:4;stroke-dasharray:none;stroke-dashoffset:0;stroke-opacity:1;paint-order:stroke fill markers;color-rendering:auto;image-rendering:auto;shape-rendering:auto;text-rendering:auto;enable-background:accumulate;stop-color:#000000;stop-opacity:1"
           d="m 149.85586,232.33053 c 0,0 5.73277,34.14497 2.90392,35.05438 -2.82887,0.9094 -19.91255,-28.20944 -19.91255,-28.20944 0,0 2.12512,-5.82223 7.17805,-7.84218 5.05293,-2.01995 9.83058,0.99724 9.83058,0.99724 z"
           id="path965" />
      </g>
      <g
         id="g967"
         style="display:inline;opacity:1">
        <path
           style="color:#000000;font-style:normal;font-variant:normal;font-weight:normal;font-stretch:normal;font-size:medium;line-height:normal;font-family:sans-serif;font-variant-ligatures:normal;font-variant-position:normal;font-variant-caps:normal;font-variant-numeric:normal;font-variant-alternates:normal;font-variant-east-asian:normal;font-feature-settings:normal;font-variation-settings:normal;text-indent:0;text-align:start;text-decoration:none;text-decoration-line:none;text-decoration-style:solid;text-decoration-color:#000000;letter-spacing:normal;word-spacing:normal;text-transform:none;writing-mode:lr-tb;direction:ltr;text-orientation:mixed;dominant-baseline:auto;baseline-shift:baseline;text-anchor:start;white-space:normal;shape-padding:0;shape-margin:0;inline-size:0;clip-rule:nonzero;display:inline;overflow:visible;visibility:visible;isolation:auto;mix-blend-mode:normal;color-interpolation:sRGB;color-interpolation-filters:linearRGB;solid-color:#000000;solid-opacity:1;vector-effect:none;fill:#000000;fill-opacity:1;fill-rule:nonzero;stroke:none;stroke-width:2.62114;stroke-linecap:butt;stroke-linejoin:miter;stroke-miterlimit:4;stroke-dasharray:none;stroke-dashoffset:0;stroke-opacity:1;paint-order:stroke fill markers;color-rendering:auto;image-rendering:auto;shape-rendering:auto;text-rendering:auto;enable-background:accumulate;stop-color:#000000;stop-opacity:1"
           d="m 251.56055,106.86914 c -1.21805,-0.0388 -2.6306,0.096 -4.22461,0.34961 -3.18802,0.50729 -7.08755,1.50433 -11.19727,2.72656 -8.21944,2.44447 -17.25626,5.79065 -22.67969,7.92383 l -0.38476,0.15039 -0.22852,0.3457 c 0,0 -1.21627,1.82781 -1.72265,4.46485 -0.50639,2.63704 -0.28359,6.25112 2.44922,9.58398 2.80047,3.41539 6.88022,4.21323 10.08984,4.17774 3.20962,-0.0355 5.75586,-0.88477 5.75586,-0.88477 l 0.29101,-0.0977 0.21875,-0.21485 c 8.86261,-8.76916 16.00144,-14.37697 20.5293,-18.24609 2.26393,-1.93456 3.87858,-3.38825 4.81445,-4.83203 0.46794,-0.7219 0.7983,-1.50523 0.72657,-2.38086 -0.0717,-0.87563 -0.60456,-1.65495 -1.27735,-2.18164 -0.88253,-0.6909 -1.94211,-0.84599 -3.16015,-0.88477 z m -0.082,2.62109 c 0.9526,0.0303 1.5356,0.25662 1.62695,0.32813 0.3011,0.23572 0.27718,0.2804 0.28125,0.33008 0.004,0.0497 -0.0227,0.29214 -0.31445,0.74218 -0.58345,0.90009 -2.09694,2.36739 -4.31836,4.26563 -4.39201,3.75303 -11.56988,9.42264 -20.39453,18.12109 -0.31739,0.0991 -2.1855,0.66526 -4.72657,0.69336 -2.76544,0.0306 -5.89608,-0.61042 -8.0332,-3.21679 -2.20478,-2.6889 -2.30663,-5.32238 -1.90234,-7.42774 0.33449,-1.74188 0.9267,-2.79509 1.15625,-3.17969 5.40383,-2.11653 14.10998,-5.33112 22.0332,-7.6875 4.0479,-1.20385 7.87522,-2.17718 10.86133,-2.65234 1.49305,-0.23758 2.77786,-0.34674 3.73047,-0.31641 z"
           id="path969" />
        <path
           style="color:#000000;font-style:normal;font-variant:normal;font-weight:normal;font-stretch:normal;font-size:medium;line-height:normal;font-family:sans-serif;font-variant-ligatures:normal;font-variant-position:normal;font-variant-caps:normal;font-variant-numeric:normal;font-variant-alternates:normal;font-variant-east-asian:normal;font-feature-settings:normal;font-variation-settings:normal;text-indent:0;text-align:start;text-decoration:none;text-decoration-line:none;text-decoration-style:solid;text-decoration-color:#000000;letter-spacing:normal;word-spacing:normal;text-transform:none;writing-mode:lr-tb;direction:ltr;text-orientation:mixed;dominant-baseline:auto;baseline-shift:baseline;text-anchor:start;white-space:normal;shape-padding:0;shape-margin:0;inline-size:0;clip-rule:nonzero;display:inline;overflow:visible;visibility:visible;isolation:auto;mix-blend-mode:normal;color-interpolation:sRGB;color-interpolation-filters:linearRGB;solid-color:#000000;solid-opacity:1;vector-effect:none;fill:url(#linearGradient3519);fill-opacity:1;fill-rule:nonzero;stroke:none;stroke-width:2.62114;stroke-linecap:butt;stroke-linejoin:miter;stroke-miterlimit:4;stroke-dasharray:none;stroke-dashoffset:0;stroke-opacity:1;paint-order:stroke fill markers;color-rendering:auto;image-rendering:auto;shape-rendering:auto;text-rendering:auto;enable-background:accumulate;stop-color:#000000;stop-opacity:1"
           d="m 213.93891,119.08838 c 10.79209,-4.24483 36.07877,-13.35158 39.97431,-10.30193 3.89555,3.04965 -7.07936,8.03572 -24.90795,25.67634 0,0 -9.48132,3.14302 -14.41891,-2.87874 -4.93759,-6.02176 -0.64745,-12.49567 -0.64745,-12.49567 z"
           id="path971" />
      </g>
    </g>
  </g>
</svg>
